<svg width="84" height="106" viewBox="0 0 84 106" fill="none" xmlns="http://www.w3.org/2000/svg">
<path d="M82.009 90C78.009 93.5 69.509 104 48.009 104C22.009 104 2.00896 85.5 2.00896 59.5V39C2.00896 19.5 21.009 2 42.509 2C65.009 2 82.009 18 82.009 39V59.5C82.009 72 71.509 90.5 48.009 90.5C24.509 90.5 15.509 70 15.509 59.5V39.5C15.509 28 26.009 15.5 42.009 15.5C58.009 15.5 68.509 29.5 68.509 39V59C68.509 68 59.509 77.5 48.509 77.5C37.509 77.5 28.509 68 28.509 58.5V42C28.509 36 31.009 29 42.009 29C53.009 29 55.509 38.5 55.509 42V56.5C55.509 61.5 52.009 64 48.509 64C45.009 64 42.009 61.5 42.009 57.5V42" stroke="#222222" stroke-width="4" stroke-linecap="round"/>
</svg>
