<svg width="86" height="108" viewBox="0 0 86 108" fill="none" xmlns="http://www.w3.org/2000/svg">
<path d="M83.009 91C79.009 94.5 70.509 105 49.009 105C23.009 105 3.00896 86.5 3.00896 60.5V40C3.00896 20.5 22.009 3 43.509 3C66.009 3 83.009 19 83.009 40V60.5C83.009 73 72.509 91.5 49.009 91.5C25.509 91.5 16.509 71 16.509 60.5V40.5C16.509 29 27.009 16.5 43.009 16.5C59.009 16.5 69.509 30.5 69.509 40V60C69.509 69 60.509 78.5 49.509 78.5C38.509 78.5 29.509 69 29.509 59.5V43C29.509 37 32.009 30 43.009 30C54.009 30 56.509 39.5 56.509 43V57.5C56.509 62.5 53.009 65 49.509 65C46.009 65 43.009 62.5 43.009 58.5V43" stroke="#222222" stroke-width="6" stroke-linecap="round"/>
</svg>
